# xmcd CD database file
#
# Track frame offsets:
#	150
#	36150
#	96750
#	140700
#	206250
#	251550
#
# Disc length: 4134 seconds
#
# Revision: 0
# Processed by: cddbd v1.5.2PL0 Copyright (c) Steve Scherf et al.
# Submitted via: CDex 1.51
#
DISCID=4f102406
DTITLE=Dizzy Gillespie and Arturo Sandoval - Live at the Jazz Placa Festival 1985 2#2
DYEAR=1985
DGENRE=Jazz
TTITLE0=Blues walk
TTITLE1=Land of milk and honey
TTITLE2=Con Alma
TTITLE3=Manteca
TTITLE4=Tin Tin Deo
TTITLE5=A night in Tunisia
EXTD=YEAR: 1985
EXTT0=
EXTT1=
EXTT2=
EXTT3=
EXTT4=
EXTT5=
PLAYORDER=
